<?xml version="1.0" encoding="utf-8"?>
<!-- Generator: Adobe Illustrator 26.0.1, SVG Export Plug-In . SVG Version: 6.00 Build 0)  -->
<svg version="1.1" id="Layer_1" xmlns="http://www.w3.org/2000/svg" xmlns:xlink="http://www.w3.org/1999/xlink" x="0px" y="0px"
	 viewBox="0 0 512 512" style="enable-background:new 0 0 512 512;" xml:space="preserve">
<style type="text/css">
	.st0{fill:#FFFFFF;}
</style>
<path class="st0" d="M256,0C114.6,0,0,114.6,0,256s114.6,256,256,256s256-114.6,256-256S397.4,0,256,0z M199.2,312.6
	c14.9,15.1,34.8,23.4,55.9,23.4c0,0,0,0,0,0c21.1,0,40.9-8.3,55.8-23.4c9.4-9.4,24.5-9.5,34-0.2c9.4,9.3,9.5,24.5,0.2,34
	c-24,24.2-56,37.6-89.9,37.6c0,0,0,0,0,0c-34,0-65.9-13.3-89.9-37.6c-49.4-49.9-49.4-131,0-180.9c24-24.2,56-37.6,89.9-37.6
	c0,0,0,0,0,0c34,0,65.9,13.3,89.9,37.6c9.3,9.4,9.2,24.6-0.2,34c-9.4,9.3-24.6,9.2-34-0.2c-14.9-15.1-34.8-23.4-55.8-23.4
	c0,0,0,0,0,0c-21.1,0-40.9,8.3-55.9,23.4C168.3,230.6,168.3,281.4,199.2,312.6z"/>
</svg>
